<?xml version="1.0" encoding="utf-8"?>
<!-- Svg Vector Icons : http://www.sfont.cn -->
<!DOCTYPE svg PUBLIC "-//W3C//DTD SVG 1.1//EN" "http://www.w3.org/Graphics/SVG/1.1/DTD/svg11.dtd">
<svg version="1.1" xmlns="http://www.w3.org/2000/svg" xmlns:xlink="http://www.w3.org/1999/xlink" x="0px" y="0px" viewBox="0 0 1000 1000" enable-background="new 0 0 1000 1000" xml:space="preserve">
<metadata> Svg Vector Icons : http://www.sfont.cn </metadata>
<g><g transform="translate(0.000000,511.000000) scale(0.100000,-0.100000)"><path d="M3984.9,5040.2c-98.8-43.9-191.1-129.6-243.8-232.9c-37.3-70.3-41.7-131.8-41.7-467.9V3955H2007.9c-1812.3,0-1752.9,4.4-1854-107.6c-28.6-32.9-41.7-76.9-39.5-145c0-94.5,22-129.6,353.7-571.1c195.5-259.2,353.7-481.1,353.7-489.9c0-11-158.2-230.6-351.5-487.7c-221.9-294.4-353.7-489.9-355.9-525c-4.4-105.4,6.6-166.9,43.9-208.7c72.5-79.1,166.9-101,459.1-101h279L509.7,930.2C-57,354.7-65.8,414,672.3-321.9c349.3-347.1,562.3-544.8,615.1-566.7c70.3-28.6,248.2-33,1247.7-33h1164.2v-1779.3c0-1946.2-4.4-1867.2,127.4-2005.6c32.9-35.2,96.7-81.3,140.6-105.4c76.9-39.6,138.4-41.7,902.8-41.7h819.4l118.6,72.5c92.3,54.9,134,96.7,180.1,188.9l61.5,116.4v1777.1v1777.1H7862c1959.4,0,1893.5-4.4,1974.8,114.2c43.9,61.5,43.9,177.9,4.4,254.8c-17.6,32.9-230.7,257-472.3,498.7l-441.5,439.3l448.1,450.3c246,248.2,459.1,472.3,472.3,498.6c13.2,26.4,24.2,87.9,24.2,134c0,72.5-13.2,98.9-76.9,156l-79.1,68.1h-294.4c-162.6,0-296.6,6.6-296.6,15.4c0,8.8,173.5,188.9,384.4,402c402,406.4,399.8,402,386.6,582.1c-4.4,35.1-19.8,90.1-35.1,120.8c-43.9,83.5-1021.4,1043.4-1109.3,1089.6c-72.5,39.5-158.2,41.7-1399.3,48.3l-1324.6,6.6v382.2c0,208.7-8.8,406.4-19.8,434.9c-35.1,87.9-160.4,217.5-254.8,259.2c-79.1,37.3-160.4,41.7-889.6,39.5C4195.8,5073.2,4048.6,5068.8,3984.9,5040.2z M5654.3,4328.5V3955h-790.8h-790.8v373.4v373.4h790.8h790.8V4328.5z M9048.2,3115.9l474.5-465.7L9057,2184.5l-465.7-465.7l-3989.2-8.8c-2194.5-4.4-3991.4-6.6-3993.6-4.4c-4.4,0,151.6,210.9,342.7,467.9l351.5,467.9L971,3083c-182.3,243.8-340.5,456.9-353.7,472.3c-15.4,19.8,779.8,26.4,3969.4,26.4h3987L9048.2,3115.9z M8865.9,851.2l-465.7-465.7l465.7-467.9l467.9-465.7h-3954h-3954L960-82.4L492.2,385.4l465.7,465.7l467.9,467.9h3954h3954L8865.9,851.2z M5671.9-2694.3l-6.6-1774.9l-795.2-6.6l-797.4-4.4v1779.3v1779.3h801.8h801.8L5671.9-2694.3z"/></g></g>
</svg>