<?xml version="1.0" encoding="utf-8"?>
<!-- Svg Vector Icons : http://www.sfont.cn -->
<!DOCTYPE svg PUBLIC "-//W3C//DTD SVG 1.1//EN" "http://www.w3.org/Graphics/SVG/1.1/DTD/svg11.dtd">
<svg version="1.1" xmlns="http://www.w3.org/2000/svg" xmlns:xlink="http://www.w3.org/1999/xlink" x="0px" y="0px" viewBox="0 0 1000 1000" enable-background="new 0 0 1000 1000" xml:space="preserve">
<metadata> Svg Vector Icons : http://www.sfont.cn </metadata>
<g><path d="M859.3,990h-196c-72.2,0-130.7-58.5-130.7-130.7v-196c0-72.2,58.5-130.7,130.7-130.7h196c72.2,0,130.7,58.5,130.7,130.7v196C990,931.5,931.5,990,859.3,990z M924.7,598H598v326.7h326.7V598z M859.3,467.3h-196c-72.2,0-130.7-58.5-130.7-130.7v-196C532.7,68.5,591.2,10,663.3,10h196C931.5,10,990,68.5,990,140.7v196C990,408.8,931.5,467.3,859.3,467.3z M924.7,75.3H598V402h326.7V75.3z M336.7,990h-196C68.5,990,10,931.5,10,859.3v-196c0-72.2,58.5-130.7,130.7-130.7h196c72.2,0,130.7,58.5,130.7,130.7v196C467.3,931.5,408.8,990,336.7,990z M402,598H75.3v326.7H402V598z M336.7,467.3h-196C68.5,467.3,10,408.8,10,336.7v-196C10,68.5,68.5,10,140.7,10h196c72.2,0,130.7,58.5,130.7,130.7v196C467.3,408.8,408.8,467.3,336.7,467.3z"/></g>
</svg>